<?xml version="1.0" encoding="us-ascii" standalone="no"?><svg xmlns="http://www.w3.org/2000/svg" xmlns:xlink="http://www.w3.org/1999/xlink" contentStyleType="text/css" height="295px" preserveAspectRatio="none" style="width:668px;height:295px;background:#FFFFFF;" version="1.1" viewBox="0 0 668 295" width="668px" zoomAndPan="magnify"><defs/><g><!--class GameEventController`1--><g id="elem_GameEventController`1"><rect codeLine="1" fill="#F1F1F1" height="118.4375" id="GameEventController`1" rx="2.5" ry="2.5" style="stroke:#181818;stroke-width:0.5;" width="291" x="68.5" y="10"/><ellipse cx="129.75" cy="26" fill="#ADD1B2" rx="11" ry="11" style="stroke:#181818;stroke-width:1.0;"/><path d="M132.5156,21.875 Q132.6719,21.6563 132.8594,21.5469 Q133.0469,21.4375 133.2656,21.4375 Q133.6406,21.4375 133.875,21.7031 Q134.1094,21.9531 134.1094,22.5625 L134.1094,24.0156 Q134.1094,24.625 133.875,24.8906 Q133.6406,25.1563 133.2656,25.1563 Q132.9219,25.1563 132.7188,24.9531 Q132.5156,24.7656 132.4063,24.25 Q132.3594,23.8906 132.1719,23.7031 Q131.8438,23.3281 131.2344,23.1094 Q130.625,22.8906 130,22.8906 Q129.2344,22.8906 128.5938,23.2188 Q127.9688,23.5469 127.4688,24.2969 Q126.9844,25.0469 126.9844,26.0781 L126.9844,27.1719 Q126.9844,28.4063 127.875,29.2344 Q128.7656,30.0469 130.3594,30.0469 Q131.2969,30.0469 131.9531,29.7969 Q132.3438,29.6406 132.7656,29.2031 Q133.0313,28.9375 133.1719,28.8594 Q133.3281,28.7813 133.5313,28.7813 Q133.8594,28.7813 134.1094,29.0469 Q134.375,29.2969 134.375,29.6406 Q134.375,29.9844 134.0313,30.3906 Q133.5313,30.9688 132.7344,31.2969 Q131.6563,31.75 130.3594,31.75 Q128.8438,31.75 127.6406,31.125 Q126.6563,30.625 125.9688,29.5625 Q125.2813,28.4844 125.2813,27.2031 L125.2813,26.0469 Q125.2813,24.7188 125.8906,23.5781 Q126.5156,22.4219 127.6094,21.8125 Q128.7031,21.1875 129.9375,21.1875 Q130.6719,21.1875 131.3125,21.3594 Q131.9688,21.5156 132.5156,21.875 Z " fill="#000000"/><text fill="#000000" font-family="sans-serif" font-size="14" lengthAdjust="spacing" textLength="149" x="150.25" y="31.7285">GameEventController`1</text><rect fill="#FFFFFF" height="17.0938" style="stroke:#181818;stroke-width:1.0;stroke-dasharray:2.0,2.0;" width="9" x="353.5" y="7"/><text fill="#000000" font-family="sans-serif" font-size="12" font-style="italic" lengthAdjust="spacing" textLength="7" x="354.5" y="20.457">T</text><line style="stroke:#181818;stroke-width:0.5;" x1="69.5" x2="358.5" y1="42" y2="42"/><ellipse cx="79.5" cy="56.3047" fill="none" rx="3" ry="3" style="stroke:#038048;stroke-width:1.0;"/><text fill="#000000" font-family="sans-serif" font-size="14" lengthAdjust="spacing" textLength="198" x="88.5" y="60.5332">&#171;event&#187; baseEvent : Action&lt;T&gt;</text><line style="stroke:#181818;stroke-width:0.5;" x1="69.5" x2="358.5" y1="67.6094" y2="67.6094"/><ellipse cx="79.5" cy="81.9141" fill="#84BE84" rx="3" ry="3" style="stroke:#038048;stroke-width:1.0;"/><text fill="#000000" font-family="sans-serif" font-size="14" lengthAdjust="spacing" textLength="165" x="88.5" y="86.1426">InvokeEvent(type:T) : void</text><ellipse cx="79.5" cy="99.5234" fill="#84BE84" rx="3" ry="3" style="stroke:#038048;stroke-width:1.0;"/><text fill="#000000" font-family="sans-serif" font-size="14" lengthAdjust="spacing" textLength="238" x="88.5" y="103.752">AddListener(listener:Action&lt;T&gt;) : void</text><ellipse cx="79.5" cy="117.1328" fill="#84BE84" rx="3" ry="3" style="stroke:#038048;stroke-width:1.0;"/><text fill="#000000" font-family="sans-serif" font-size="14" lengthAdjust="spacing" textLength="265" x="88.5" y="121.3613">RemoveListener(listener:Action&lt;T&gt;) : void</text></g><!--class GameEventController--><g id="elem_GameEventController"><rect codeLine="7" fill="#F1F1F1" height="118.4375" id="GameEventController" rx="2.5" ry="2.5" style="stroke:#181818;stroke-width:0.5;" width="266" x="395" y="10"/><ellipse cx="455.75" cy="26" fill="#ADD1B2" rx="11" ry="11" style="stroke:#181818;stroke-width:1.0;"/><path d="M458.5156,21.875 Q458.6719,21.6563 458.8594,21.5469 Q459.0469,21.4375 459.2656,21.4375 Q459.6406,21.4375 459.875,21.7031 Q460.1094,21.9531 460.1094,22.5625 L460.1094,24.0156 Q460.1094,24.625 459.875,24.8906 Q459.6406,25.1563 459.2656,25.1563 Q458.9219,25.1563 458.7188,24.9531 Q458.5156,24.7656 458.4063,24.25 Q458.3594,23.8906 458.1719,23.7031 Q457.8438,23.3281 457.2344,23.1094 Q456.625,22.8906 456,22.8906 Q455.2344,22.8906 454.5938,23.2188 Q453.9688,23.5469 453.4688,24.2969 Q452.9844,25.0469 452.9844,26.0781 L452.9844,27.1719 Q452.9844,28.4063 453.875,29.2344 Q454.7656,30.0469 456.3594,30.0469 Q457.2969,30.0469 457.9531,29.7969 Q458.3438,29.6406 458.7656,29.2031 Q459.0313,28.9375 459.1719,28.8594 Q459.3281,28.7813 459.5313,28.7813 Q459.8594,28.7813 460.1094,29.0469 Q460.375,29.2969 460.375,29.6406 Q460.375,29.9844 460.0313,30.3906 Q459.5313,30.9688 458.7344,31.2969 Q457.6563,31.75 456.3594,31.75 Q454.8438,31.75 453.6406,31.125 Q452.6563,30.625 451.9688,29.5625 Q451.2813,28.4844 451.2813,27.2031 L451.2813,26.0469 Q451.2813,24.7188 451.8906,23.5781 Q452.5156,22.4219 453.6094,21.8125 Q454.7031,21.1875 455.9375,21.1875 Q456.6719,21.1875 457.3125,21.3594 Q457.9688,21.5156 458.5156,21.875 Z " fill="#000000"/><text fill="#000000" font-family="sans-serif" font-size="14" lengthAdjust="spacing" textLength="136" x="476.25" y="31.7285">GameEventController</text><line style="stroke:#181818;stroke-width:0.5;" x1="396" x2="660" y1="42" y2="42"/><ellipse cx="406" cy="56.3047" fill="none" rx="3" ry="3" style="stroke:#038048;stroke-width:1.0;"/><text fill="#000000" font-family="sans-serif" font-size="14" lengthAdjust="spacing" textLength="173" x="415" y="60.5332">&#171;event&#187; baseEvent : Action</text><line style="stroke:#181818;stroke-width:0.5;" x1="396" x2="660" y1="67.6094" y2="67.6094"/><ellipse cx="406" cy="81.9141" fill="#84BE84" rx="3" ry="3" style="stroke:#038048;stroke-width:1.0;"/><text fill="#000000" font-family="sans-serif" font-size="14" lengthAdjust="spacing" textLength="125" x="415" y="86.1426">InvokeEvent() : void</text><ellipse cx="406" cy="99.5234" fill="#84BE84" rx="3" ry="3" style="stroke:#038048;stroke-width:1.0;"/><text fill="#000000" font-family="sans-serif" font-size="14" lengthAdjust="spacing" textLength="213" x="415" y="103.752">AddListener(listener:Action) : void</text><ellipse cx="406" cy="117.1328" fill="#84BE84" rx="3" ry="3" style="stroke:#038048;stroke-width:1.0;"/><text fill="#000000" font-family="sans-serif" font-size="14" lengthAdjust="spacing" textLength="240" x="415" y="121.3613">RemoveListener(listener:Action) : void</text></g><!--class EventService--><g id="elem_EventService"><rect codeLine="1" fill="#F1F1F1" height="100.8281" id="EventService" rx="2.5" ry="2.5" style="stroke:#181818;stroke-width:0.5;" width="414" x="7" y="188"/><ellipse cx="168.25" cy="204" fill="#ADD1B2" rx="11" ry="11" style="stroke:#181818;stroke-width:1.0;"/><path d="M171.0156,199.875 Q171.1719,199.6563 171.3594,199.5469 Q171.5469,199.4375 171.7656,199.4375 Q172.1406,199.4375 172.375,199.7031 Q172.6094,199.9531 172.6094,200.5625 L172.6094,202.0156 Q172.6094,202.625 172.375,202.8906 Q172.1406,203.1563 171.7656,203.1563 Q171.4219,203.1563 171.2188,202.9531 Q171.0156,202.7656 170.9063,202.25 Q170.8594,201.8906 170.6719,201.7031 Q170.3438,201.3281 169.7344,201.1094 Q169.125,200.8906 168.5,200.8906 Q167.7344,200.8906 167.0938,201.2188 Q166.4688,201.5469 165.9688,202.2969 Q165.4844,203.0469 165.4844,204.0781 L165.4844,205.1719 Q165.4844,206.4063 166.375,207.2344 Q167.2656,208.0469 168.8594,208.0469 Q169.7969,208.0469 170.4531,207.7969 Q170.8438,207.6406 171.2656,207.2031 Q171.5313,206.9375 171.6719,206.8594 Q171.8281,206.7813 172.0313,206.7813 Q172.3594,206.7813 172.6094,207.0469 Q172.875,207.2969 172.875,207.6406 Q172.875,207.9844 172.5313,208.3906 Q172.0313,208.9688 171.2344,209.2969 Q170.1563,209.75 168.8594,209.75 Q167.3438,209.75 166.1406,209.125 Q165.1563,208.625 164.4688,207.5625 Q163.7813,206.4844 163.7813,205.2031 L163.7813,204.0469 Q163.7813,202.7188 164.3906,201.5781 Q165.0156,200.4219 166.1094,199.8125 Q167.2031,199.1875 168.4375,199.1875 Q169.1719,199.1875 169.8125,199.3594 Q170.4688,199.5156 171.0156,199.875 Z " fill="#000000"/><text fill="#000000" font-family="sans-serif" font-size="14" lengthAdjust="spacing" textLength="83" x="188.75" y="209.7285">EventService</text><line style="stroke:#181818;stroke-width:0.5;" x1="8" x2="420" y1="220" y2="220"/><ellipse cx="18" cy="234.3047" fill="none" rx="3" ry="3" style="stroke:#038048;stroke-width:1.0;"/><text fill="#000000" font-family="sans-serif" font-size="14" lengthAdjust="spacing" textLength="329" x="27" y="238.5332">OnBattleSelected : GameEventController&lt;int&gt; &#171;get&#187;</text><ellipse cx="18" cy="251.9141" fill="none" rx="3" ry="3" style="stroke:#038048;stroke-width:1.0;"/><text fill="#000000" font-family="sans-serif" font-size="14" lengthAdjust="spacing" textLength="388" x="27" y="256.1426">OnActionSelected : GameEventController&lt;ActionType&gt; &#171;get&#187;</text><line style="stroke:#181818;stroke-width:0.5;" x1="8" x2="420" y1="263.2188" y2="263.2188"/><ellipse cx="18" cy="277.5234" fill="#84BE84" rx="3" ry="3" style="stroke:#038048;stroke-width:1.0;"/><text fill="#000000" font-family="sans-serif" font-size="14" lengthAdjust="spacing" textLength="93" x="27" y="281.752">EventService()</text></g><!--SRC=[KypCIyufJKbLq8k9SImkJYqfZWbEBiei0DAkPQbvCCevFw-aA3yd9xL8hw0qDuTBaJXjmQb5PPd9gM0z0000]--></g></svg>