<?xml version="1.0" encoding="us-ascii" standalone="no"?><svg xmlns="http://www.w3.org/2000/svg" xmlns:xlink="http://www.w3.org/1999/xlink" contentStyleType="text/css" height="539px" preserveAspectRatio="none" style="width:976px;height:539px;background:#FFFFFF;" version="1.1" viewBox="0 0 976 539" width="976px" zoomAndPan="magnify"><defs/><g><!--class IInputHandler--><g id="elem_IInputHandler"><rect codeLine="1" fill="#F1F1F1" height="65.6094" id="IInputHandler" rx="2.5" ry="2.5" style="stroke:#181818;stroke-width:0.5;" width="149" x="167" y="103.5"/><ellipse cx="195.95" cy="119.5" fill="#B4A7E5" rx="11" ry="11" style="stroke:#181818;stroke-width:1.0;"/><path d="M196.9031,116.1406 L196.9031,122.7969 L198.6219,122.7969 Q199.2313,122.7969 199.4969,123.0313 Q199.7625,123.2656 199.7625,123.6563 Q199.7625,124.0313 199.4969,124.2656 Q199.2313,124.5 198.6219,124.5 L193.4813,124.5 Q192.8719,124.5 192.6063,124.2656 Q192.3406,124.0313 192.3406,123.6406 Q192.3406,123.2656 192.6063,123.0313 Q192.8719,122.7969 193.4813,122.7969 L195.2,122.7969 L195.2,116.1406 L193.4813,116.1406 Q192.8719,116.1406 192.6063,115.9063 Q192.3406,115.6719 192.3406,115.2813 Q192.3406,114.9063 192.6063,114.6719 Q192.8719,114.4375 193.4813,114.4375 L198.6219,114.4375 Q199.2313,114.4375 199.4969,114.6719 Q199.7625,114.9063 199.7625,115.2813 Q199.7625,115.6719 199.4969,115.9063 Q199.2313,116.1406 198.6219,116.1406 L196.9031,116.1406 Z " fill="#000000"/><text fill="#000000" font-family="sans-serif" font-size="14" font-style="italic" lengthAdjust="spacing" textLength="86" x="213.05" y="125.2285">IInputHandler</text><line style="stroke:#181818;stroke-width:0.5;" x1="168" x2="315" y1="135.5" y2="135.5"/><line style="stroke:#181818;stroke-width:0.5;" x1="168" x2="315" y1="143.5" y2="143.5"/><ellipse cx="178" cy="157.8047" fill="#84BE84" rx="3" ry="3" style="stroke:#038048;stroke-width:1.0;"/><text fill="#000000" font-family="sans-serif" font-size="14" lengthAdjust="spacing" textLength="123" x="187" y="162.0332">HandleInput() : void</text></g><!--class InputService--><g id="elem_InputService"><rect codeLine="1" fill="#F1F1F1" height="259.3125" id="InputService" rx="2.5" ry="2.5" style="stroke:#181818;stroke-width:0.5;" width="425" x="351" y="7"/><ellipse cx="520.25" cy="23" fill="#ADD1B2" rx="11" ry="11" style="stroke:#181818;stroke-width:1.0;"/><path d="M523.0156,18.875 Q523.1719,18.6563 523.3594,18.5469 Q523.5469,18.4375 523.7656,18.4375 Q524.1406,18.4375 524.375,18.7031 Q524.6094,18.9531 524.6094,19.5625 L524.6094,21.0156 Q524.6094,21.625 524.375,21.8906 Q524.1406,22.1563 523.7656,22.1563 Q523.4219,22.1563 523.2188,21.9531 Q523.0156,21.7656 522.9063,21.25 Q522.8594,20.8906 522.6719,20.7031 Q522.3438,20.3281 521.7344,20.1094 Q521.125,19.8906 520.5,19.8906 Q519.7344,19.8906 519.0938,20.2188 Q518.4688,20.5469 517.9688,21.2969 Q517.4844,22.0469 517.4844,23.0781 L517.4844,24.1719 Q517.4844,25.4063 518.375,26.2344 Q519.2656,27.0469 520.8594,27.0469 Q521.7969,27.0469 522.4531,26.7969 Q522.8438,26.6406 523.2656,26.2031 Q523.5313,25.9375 523.6719,25.8594 Q523.8281,25.7813 524.0313,25.7813 Q524.3594,25.7813 524.6094,26.0469 Q524.875,26.2969 524.875,26.6406 Q524.875,26.9844 524.5313,27.3906 Q524.0313,27.9688 523.2344,28.2969 Q522.1563,28.75 520.8594,28.75 Q519.3438,28.75 518.1406,28.125 Q517.1563,27.625 516.4688,26.5625 Q515.7813,25.4844 515.7813,24.2031 L515.7813,23.0469 Q515.7813,21.7188 516.3906,20.5781 Q517.0156,19.4219 518.1094,18.8125 Q519.2031,18.1875 520.4375,18.1875 Q521.1719,18.1875 521.8125,18.3594 Q522.4688,18.5156 523.0156,18.875 Z " fill="#000000"/><text fill="#000000" font-family="sans-serif" font-size="14" lengthAdjust="spacing" textLength="78" x="540.75" y="28.7285">InputService</text><line style="stroke:#181818;stroke-width:0.5;" x1="352" x2="775" y1="39" y2="39"/><rect fill="none" height="6" style="stroke:#C82930;stroke-width:1.0;" width="6" x="359" y="50.3047"/><text fill="#000000" font-family="sans-serif" font-size="14" lengthAdjust="spacing" textLength="256" x="371" y="57.5332">mouseInputHandler : MouseInputHandler</text><rect fill="none" height="6" style="stroke:#C82930;stroke-width:1.0;" width="6" x="359" y="67.9141"/><text fill="#000000" font-family="sans-serif" font-size="14" lengthAdjust="spacing" textLength="154" x="371" y="75.1426">currentState : InputState</text><rect fill="none" height="6" style="stroke:#C82930;stroke-width:1.0;" width="6" x="359" y="85.5234"/><text fill="#000000" font-family="sans-serif" font-size="14" lengthAdjust="spacing" textLength="207" x="371" y="92.752">selectedActionType : ActionType</text><rect fill="none" height="6" style="stroke:#C82930;stroke-width:1.0;" width="6" x="359" y="103.1328"/><text fill="#000000" font-family="sans-serif" font-size="14" lengthAdjust="spacing" textLength="155" x="371" y="110.3613">targetType : TargetType</text><line style="stroke:#181818;stroke-width:0.5;" x1="352" x2="775" y1="117.4375" y2="117.4375"/><ellipse cx="362" cy="131.7422" fill="#84BE84" rx="3" ry="3" style="stroke:#038048;stroke-width:1.0;"/><text fill="#000000" font-family="sans-serif" font-size="14" lengthAdjust="spacing" textLength="88" x="371" y="135.9707">InputService()</text><ellipse cx="362" cy="149.3516" fill="#84BE84" rx="3" ry="3" style="stroke:#038048;stroke-width:1.0;"/><text fill="#000000" font-family="sans-serif" font-size="14" lengthAdjust="spacing" textLength="303" x="371" y="153.5801">SetInputState(inputStateToSet:InputState) : void</text><rect fill="#F24D5C" height="6" style="stroke:#C82930;stroke-width:1.0;" width="6" x="359" y="163.9609"/><text fill="#000000" font-family="sans-serif" font-size="14" lengthAdjust="spacing" textLength="171" x="371" y="171.1895">SubscribeToEvents() : void</text><ellipse cx="362" cy="184.5703" fill="#84BE84" rx="3" ry="3" style="stroke:#038048;stroke-width:1.0;"/><text fill="#000000" font-family="sans-serif" font-size="14" lengthAdjust="spacing" textLength="171" x="371" y="188.7988">UpdateInputService() : void</text><ellipse cx="362" cy="202.1797" fill="#84BE84" rx="3" ry="3" style="stroke:#038048;stroke-width:1.0;"/><text fill="#000000" font-family="sans-serif" font-size="14" lengthAdjust="spacing" textLength="360" x="371" y="206.4082">OnActionSelected(selectedActionType:ActionType) : void</text><rect fill="#F24D5C" height="6" style="stroke:#C82930;stroke-width:1.0;" width="6" x="359" y="216.7891"/><text fill="#000000" font-family="sans-serif" font-size="14" lengthAdjust="spacing" textLength="399" x="371" y="224.0176">ShowTargetSelectionUI(selectedTargetType:TargetType) : void</text><rect fill="#F24D5C" height="6" style="stroke:#C82930;stroke-width:1.0;" width="6" x="359" y="234.3984"/><text fill="#000000" font-family="sans-serif" font-size="14" lengthAdjust="spacing" textLength="390" x="371" y="241.627">SetTargetType(selectedActionType:ActionType) : TargetType</text><ellipse cx="362" cy="255.0078" fill="#84BE84" rx="3" ry="3" style="stroke:#038048;stroke-width:1.0;"/><text fill="#000000" font-family="sans-serif" font-size="14" lengthAdjust="spacing" textLength="315" x="371" y="259.2363">OnTargetSelected(targetUnit:UnitController) : void</text></g><!--class InputState--><g id="elem_InputState"><rect codeLine="1" fill="#F1F1F1" height="118.4375" id="InputState" rx="2.5" ry="2.5" style="stroke:#181818;stroke-width:0.5;" width="158" x="811.5" y="77.5"/><ellipse cx="854.4" cy="93.5" fill="#EB937F" rx="11" ry="11" style="stroke:#181818;stroke-width:1.0;"/><path d="M853.2594,94.2969 L853.2594,96.7969 L857.5875,96.7969 L857.5875,95.875 Q857.5875,95.2656 857.8219,95 Q858.0719,94.7344 858.4469,94.7344 Q858.8219,94.7344 859.0563,95 Q859.2906,95.2656 859.2906,95.875 L859.2906,98.5 L851.2906,98.5 Q850.6656,98.5 850.4,98.2656 Q850.15,98.0313 850.15,97.6406 Q850.15,97.2656 850.4156,97.0313 Q850.6813,96.7969 851.2906,96.7969 L851.5563,96.7969 L851.5563,90.1406 L851.2906,90.1406 Q850.6656,90.1406 850.4,89.9063 Q850.15,89.6719 850.15,89.2813 Q850.15,88.9063 850.4,88.6719 Q850.6656,88.4375 851.2906,88.4375 L858.9156,88.4375 L858.9156,91.0313 Q858.9156,91.6406 858.6813,91.9063 Q858.4625,92.1563 858.0719,92.1563 Q857.6969,92.1563 857.4625,91.9063 Q857.2281,91.6406 857.2281,91.0313 L857.2281,90.1406 L853.2594,90.1406 L853.2594,92.5938 L854.7438,92.5938 Q854.7438,91.9375 854.8688,91.75 Q855.1344,91.3438 855.6031,91.3438 Q855.9781,91.3438 856.2125,91.6094 Q856.4469,91.8594 856.4469,92.4688 L856.4469,94.4375 Q856.4469,94.9844 856.3219,95.1719 Q856.0563,95.5625 855.6031,95.5625 Q855.1344,95.5625 854.8688,95.1563 Q854.7438,94.9688 854.7438,94.2969 L853.2594,94.2969 Z " fill="#000000"/><text fill="#000000" font-family="sans-serif" font-size="14" lengthAdjust="spacing" textLength="64" x="874.6" y="99.2285">InputState</text><line style="stroke:#181818;stroke-width:0.5;" x1="812.5" x2="968.5" y1="109.5" y2="109.5"/><text fill="#000000" font-family="sans-serif" font-size="14" lengthAdjust="spacing" textLength="140" x="817.5" y="128.0332">SELECTING_ACTION,</text><text fill="#000000" font-family="sans-serif" font-size="14" lengthAdjust="spacing" textLength="146" x="817.5" y="145.6426">SELECTING_TARGET,</text><text fill="#000000" font-family="sans-serif" font-size="14" lengthAdjust="spacing" textLength="128" x="817.5" y="163.252">EXECUTING_INPUT,</text><text fill="#000000" font-family="sans-serif" font-size="14" lengthAdjust="spacing" textLength="65" x="817.5" y="180.8613">INACTIVE,</text><line style="stroke:#181818;stroke-width:0.5;" x1="812.5" x2="968.5" y1="187.9375" y2="187.9375"/></g><!--class MouseInputHandler--><g id="elem_MouseInputHandler"><rect codeLine="1" fill="#F1F1F1" height="206.4844" id="MouseInputHandler" rx="2.5" ry="2.5" style="stroke:#181818;stroke-width:0.5;" width="469" x="7" y="326"/><ellipse cx="176.25" cy="342" fill="#ADD1B2" rx="11" ry="11" style="stroke:#181818;stroke-width:1.0;"/><path d="M179.0156,337.875 Q179.1719,337.6563 179.3594,337.5469 Q179.5469,337.4375 179.7656,337.4375 Q180.1406,337.4375 180.375,337.7031 Q180.6094,337.9531 180.6094,338.5625 L180.6094,340.0156 Q180.6094,340.625 180.375,340.8906 Q180.1406,341.1563 179.7656,341.1563 Q179.4219,341.1563 179.2188,340.9531 Q179.0156,340.7656 178.9063,340.25 Q178.8594,339.8906 178.6719,339.7031 Q178.3438,339.3281 177.7344,339.1094 Q177.125,338.8906 176.5,338.8906 Q175.7344,338.8906 175.0938,339.2188 Q174.4688,339.5469 173.9688,340.2969 Q173.4844,341.0469 173.4844,342.0781 L173.4844,343.1719 Q173.4844,344.4063 174.375,345.2344 Q175.2656,346.0469 176.8594,346.0469 Q177.7969,346.0469 178.4531,345.7969 Q178.8438,345.6406 179.2656,345.2031 Q179.5313,344.9375 179.6719,344.8594 Q179.8281,344.7813 180.0313,344.7813 Q180.3594,344.7813 180.6094,345.0469 Q180.875,345.2969 180.875,345.6406 Q180.875,345.9844 180.5313,346.3906 Q180.0313,346.9688 179.2344,347.2969 Q178.1563,347.75 176.8594,347.75 Q175.3438,347.75 174.1406,347.125 Q173.1563,346.625 172.4688,345.5625 Q171.7813,344.4844 171.7813,343.2031 L171.7813,342.0469 Q171.7813,340.7188 172.3906,339.5781 Q173.0156,338.4219 174.1094,337.8125 Q175.2031,337.1875 176.4375,337.1875 Q177.1719,337.1875 177.8125,337.3594 Q178.4688,337.5156 179.0156,337.875 Z " fill="#000000"/><text fill="#000000" font-family="sans-serif" font-size="14" lengthAdjust="spacing" textLength="122" x="196.75" y="347.7285">MouseInputHandler</text><line style="stroke:#181818;stroke-width:0.5;" x1="8" x2="475" y1="358" y2="358"/><rect fill="none" height="6" style="stroke:#C82930;stroke-width:1.0;" width="6" x="15" y="369.3047"/><text fill="#000000" font-family="sans-serif" font-size="14" lengthAdjust="spacing" textLength="168" x="27" y="376.5332">inputService : InputService</text><rect fill="none" height="6" style="stroke:#C82930;stroke-width:1.0;" width="6" x="15" y="386.9141"/><text fill="#000000" font-family="sans-serif" font-size="14" lengthAdjust="spacing" textLength="211" x="27" y="394.1426">targetTypeToSelect : TargetType</text><line style="stroke:#181818;stroke-width:0.5;" x1="8" x2="475" y1="401.2188" y2="401.2188"/><ellipse cx="18" cy="415.5234" fill="#84BE84" rx="3" ry="3" style="stroke:#038048;stroke-width:1.0;"/><text fill="#000000" font-family="sans-serif" font-size="14" lengthAdjust="spacing" textLength="292" x="27" y="419.752">MouseInputHandler(inputService:InputService)</text><ellipse cx="18" cy="433.1328" fill="#84BE84" rx="3" ry="3" style="stroke:#038048;stroke-width:1.0;"/><text fill="#000000" font-family="sans-serif" font-size="14" lengthAdjust="spacing" textLength="395" x="27" y="437.3613">HandleTargetSelection(targetTypeToSelect:TargetType) : void</text><ellipse cx="18" cy="450.7422" fill="#84BE84" rx="3" ry="3" style="stroke:#038048;stroke-width:1.0;"/><text fill="#000000" font-family="sans-serif" font-size="14" lengthAdjust="spacing" textLength="193" x="27" y="454.9707">TrySelectingTargetUnit() : void</text><rect fill="#F24D5C" height="6" style="stroke:#C82930;stroke-width:1.0;" width="6" x="15" y="465.3516"/><text fill="#000000" font-family="sans-serif" font-size="14" lengthAdjust="spacing" textLength="223" x="27" y="472.5801">GetMouseWorldPosition() : Vector3</text><rect fill="#F24D5C" height="6" style="stroke:#C82930;stroke-width:1.0;" width="6" x="15" y="482.9609"/><text fill="#000000" font-family="sans-serif" font-size="14" lengthAdjust="spacing" textLength="443" x="27" y="490.1895">IsTargetSelected(mousePosition:Vector3, selectedUnit:UnitView) : bool</text><rect fill="#F24D5C" height="6" style="stroke:#C82930;stroke-width:1.0;" width="6" x="15" y="500.5703"/><text fill="#000000" font-family="sans-serif" font-size="14" lengthAdjust="spacing" textLength="198" x="27" y="507.7988">IsUnit(collider:Collider2D) : bool</text><rect fill="#F24D5C" height="6" style="stroke:#C82930;stroke-width:1.0;" width="6" x="15" y="518.1797"/><text fill="#000000" font-family="sans-serif" font-size="14" lengthAdjust="spacing" textLength="258" x="27" y="525.4082">ValidateUnit(selectedUnit:UnitView) : bool</text></g><!--class TargetType--><g id="elem_TargetType"><rect codeLine="1" fill="#F1F1F1" height="100.8281" id="TargetType" rx="2.5" ry="2.5" style="stroke:#181818;stroke-width:0.5;" width="106" x="511.5" y="378.5"/><ellipse cx="526.5" cy="394.5" fill="#EB937F" rx="11" ry="11" style="stroke:#181818;stroke-width:1.0;"/><path d="M525.3594,395.2969 L525.3594,397.7969 L529.6875,397.7969 L529.6875,396.875 Q529.6875,396.2656 529.9219,396 Q530.1719,395.7344 530.5469,395.7344 Q530.9219,395.7344 531.1563,396 Q531.3906,396.2656 531.3906,396.875 L531.3906,399.5 L523.3906,399.5 Q522.7656,399.5 522.5,399.2656 Q522.25,399.0313 522.25,398.6406 Q522.25,398.2656 522.5156,398.0313 Q522.7813,397.7969 523.3906,397.7969 L523.6563,397.7969 L523.6563,391.1406 L523.3906,391.1406 Q522.7656,391.1406 522.5,390.9063 Q522.25,390.6719 522.25,390.2813 Q522.25,389.9063 522.5,389.6719 Q522.7656,389.4375 523.3906,389.4375 L531.0156,389.4375 L531.0156,392.0313 Q531.0156,392.6406 530.7813,392.9063 Q530.5625,393.1563 530.1719,393.1563 Q529.7969,393.1563 529.5625,392.9063 Q529.3281,392.6406 529.3281,392.0313 L529.3281,391.1406 L525.3594,391.1406 L525.3594,393.5938 L526.8438,393.5938 Q526.8438,392.9375 526.9688,392.75 Q527.2344,392.3438 527.7031,392.3438 Q528.0781,392.3438 528.3125,392.6094 Q528.5469,392.8594 528.5469,393.4688 L528.5469,395.4375 Q528.5469,395.9844 528.4219,396.1719 Q528.1563,396.5625 527.7031,396.5625 Q527.2344,396.5625 526.9688,396.1563 Q526.8438,395.9688 526.8438,395.2969 L525.3594,395.2969 Z " fill="#000000"/><text fill="#000000" font-family="sans-serif" font-size="14" lengthAdjust="spacing" textLength="74" x="540.5" y="400.2285">TargetType</text><line style="stroke:#181818;stroke-width:0.5;" x1="512.5" x2="616.5" y1="410.5" y2="410.5"/><text fill="#000000" font-family="sans-serif" font-size="14" lengthAdjust="spacing" textLength="55" x="517.5" y="429.0332">Friendly,</text><text fill="#000000" font-family="sans-serif" font-size="14" lengthAdjust="spacing" textLength="47" x="517.5" y="446.6426">Enemy,</text><text fill="#000000" font-family="sans-serif" font-size="14" lengthAdjust="spacing" textLength="28" x="517.5" y="464.252">Self,</text><line style="stroke:#181818;stroke-width:0.5;" x1="512.5" x2="616.5" y1="471.3281" y2="471.3281"/></g><!--SRC=[KypCIyufJKbLq8k9SImkJYqfZWbEBiei0DAUUGMb9J6UOCeZCIyb9xL8hw0qDuTBaQ0U41cSMbIMcPnAafQIn19YDVZcbnQdak6saCIYzDIIaCe2Y4K0]--></g></svg>