<?xml version="1.0" encoding="us-ascii" standalone="no"?><svg xmlns="http://www.w3.org/2000/svg" xmlns:xlink="http://www.w3.org/1999/xlink" contentStyleType="text/css" height="451px" preserveAspectRatio="none" style="width:3500px;height:451px;background:#FFFFFF;" version="1.1" viewBox="0 0 3500 451" width="3500px" zoomAndPan="magnify"><defs/><g><!--class ActionService--><g id="elem_ActionService"><rect codeLine="1" fill="#F1F1F1" height="136.0469" id="ActionService" rx="2.5" ry="2.5" style="stroke:#181818;stroke-width:0.5;" width="425" x="916.5" y="33.5"/><ellipse cx="1081.75" cy="49.5" fill="#ADD1B2" rx="11" ry="11" style="stroke:#181818;stroke-width:1.0;"/><path d="M1084.5156,45.375 Q1084.6719,45.1563 1084.8594,45.0469 Q1085.0469,44.9375 1085.2656,44.9375 Q1085.6406,44.9375 1085.875,45.2031 Q1086.1094,45.4531 1086.1094,46.0625 L1086.1094,47.5156 Q1086.1094,48.125 1085.875,48.3906 Q1085.6406,48.6563 1085.2656,48.6563 Q1084.9219,48.6563 1084.7188,48.4531 Q1084.5156,48.2656 1084.4063,47.75 Q1084.3594,47.3906 1084.1719,47.2031 Q1083.8438,46.8281 1083.2344,46.6094 Q1082.625,46.3906 1082,46.3906 Q1081.2344,46.3906 1080.5938,46.7188 Q1079.9688,47.0469 1079.4688,47.7969 Q1078.9844,48.5469 1078.9844,49.5781 L1078.9844,50.6719 Q1078.9844,51.9063 1079.875,52.7344 Q1080.7656,53.5469 1082.3594,53.5469 Q1083.2969,53.5469 1083.9531,53.2969 Q1084.3438,53.1406 1084.7656,52.7031 Q1085.0313,52.4375 1085.1719,52.3594 Q1085.3281,52.2813 1085.5313,52.2813 Q1085.8594,52.2813 1086.1094,52.5469 Q1086.375,52.7969 1086.375,53.1406 Q1086.375,53.4844 1086.0313,53.8906 Q1085.5313,54.4688 1084.7344,54.7969 Q1083.6563,55.25 1082.3594,55.25 Q1080.8438,55.25 1079.6406,54.625 Q1078.6563,54.125 1077.9688,53.0625 Q1077.2813,51.9844 1077.2813,50.7031 L1077.2813,49.5469 Q1077.2813,48.2188 1077.8906,47.0781 Q1078.5156,45.9219 1079.6094,45.3125 Q1080.7031,44.6875 1081.9375,44.6875 Q1082.6719,44.6875 1083.3125,44.8594 Q1083.9688,45.0156 1084.5156,45.375 Z " fill="#000000"/><text fill="#000000" font-family="sans-serif" font-size="14" lengthAdjust="spacing" textLength="86" x="1102.25" y="55.2285">ActionService</text><line style="stroke:#181818;stroke-width:0.5;" x1="917.5" x2="1340.5" y1="65.5" y2="65.5"/><rect fill="none" height="6" style="stroke:#C82930;stroke-width:1.0;" width="6" x="924.5" y="76.8047"/><text fill="#000000" font-family="sans-serif" font-size="14" lengthAdjust="spacing" textLength="257" x="936.5" y="84.0332">actions : Dictionary&lt;ActionType, IAction&gt;</text><line style="stroke:#181818;stroke-width:0.5;" x1="917.5" x2="1340.5" y1="91.1094" y2="91.1094"/><ellipse cx="927.5" cy="105.4141" fill="#84BE84" rx="3" ry="3" style="stroke:#038048;stroke-width:1.0;"/><text fill="#000000" font-family="sans-serif" font-size="14" lengthAdjust="spacing" textLength="96" x="936.5" y="109.6426">ActionService()</text><rect fill="#F24D5C" height="6" style="stroke:#C82930;stroke-width:1.0;" width="6" x="924.5" y="120.0234"/><text fill="#000000" font-family="sans-serif" font-size="14" lengthAdjust="spacing" textLength="137" x="936.5" y="127.252">CreateActions() : void</text><ellipse cx="927.5" cy="140.6328" fill="#84BE84" rx="3" ry="3" style="stroke:#038048;stroke-width:1.0;"/><text fill="#000000" font-family="sans-serif" font-size="14" lengthAdjust="spacing" textLength="276" x="936.5" y="144.8613">GetActionByType(type:ActionType) : IAction</text><ellipse cx="927.5" cy="158.2422" fill="#84BE84" rx="3" ry="3" style="stroke:#038048;stroke-width:1.0;"/><text fill="#000000" font-family="sans-serif" font-size="14" lengthAdjust="spacing" textLength="399" x="936.5" y="162.4707">GetTargetTypeForAction(actionType:ActionType) : TargetType</text></g><!--class ActionType--><g id="elem_ActionType"><rect codeLine="1" fill="#F1F1F1" height="188.875" id="ActionType" rx="2.5" ry="2.5" style="stroke:#181818;stroke-width:0.5;" width="104" x="1377" y="7"/><ellipse cx="1392.45" cy="23" fill="#EB937F" rx="11" ry="11" style="stroke:#181818;stroke-width:1.0;"/><path d="M1391.3094,23.7969 L1391.3094,26.2969 L1395.6375,26.2969 L1395.6375,25.375 Q1395.6375,24.7656 1395.8719,24.5 Q1396.1219,24.2344 1396.4969,24.2344 Q1396.8719,24.2344 1397.1063,24.5 Q1397.3406,24.7656 1397.3406,25.375 L1397.3406,28 L1389.3406,28 Q1388.7156,28 1388.45,27.7656 Q1388.2,27.5313 1388.2,27.1406 Q1388.2,26.7656 1388.4656,26.5313 Q1388.7313,26.2969 1389.3406,26.2969 L1389.6063,26.2969 L1389.6063,19.6406 L1389.3406,19.6406 Q1388.7156,19.6406 1388.45,19.4063 Q1388.2,19.1719 1388.2,18.7813 Q1388.2,18.4063 1388.45,18.1719 Q1388.7156,17.9375 1389.3406,17.9375 L1396.9656,17.9375 L1396.9656,20.5313 Q1396.9656,21.1406 1396.7313,21.4063 Q1396.5125,21.6563 1396.1219,21.6563 Q1395.7469,21.6563 1395.5125,21.4063 Q1395.2781,21.1406 1395.2781,20.5313 L1395.2781,19.6406 L1391.3094,19.6406 L1391.3094,22.0938 L1392.7938,22.0938 Q1392.7938,21.4375 1392.9188,21.25 Q1393.1844,20.8438 1393.6531,20.8438 Q1394.0281,20.8438 1394.2625,21.1094 Q1394.4969,21.3594 1394.4969,21.9688 L1394.4969,23.9375 Q1394.4969,24.4844 1394.3719,24.6719 Q1394.1063,25.0625 1393.6531,25.0625 Q1393.1844,25.0625 1392.9188,24.6563 Q1392.7938,24.4688 1392.7938,23.7969 L1391.3094,23.7969 Z " fill="#000000"/><text fill="#000000" font-family="sans-serif" font-size="14" lengthAdjust="spacing" textLength="71" x="1406.55" y="28.7285">ActionType</text><line style="stroke:#181818;stroke-width:0.5;" x1="1378" x2="1480" y1="39" y2="39"/><text fill="#000000" font-family="sans-serif" font-size="14" lengthAdjust="spacing" textLength="37" x="1383" y="57.5332">None,</text><text fill="#000000" font-family="sans-serif" font-size="14" lengthAdjust="spacing" textLength="43" x="1383" y="75.1426">Attack,</text><text fill="#000000" font-family="sans-serif" font-size="14" lengthAdjust="spacing" textLength="32" x="1383" y="92.752">Heal,</text><text fill="#000000" font-family="sans-serif" font-size="14" lengthAdjust="spacing" textLength="87" x="1383" y="110.3613">AttackStance,</text><text fill="#000000" font-family="sans-serif" font-size="14" lengthAdjust="spacing" textLength="56" x="1383" y="127.9707">Cleanse,</text><text fill="#000000" font-family="sans-serif" font-size="14" lengthAdjust="spacing" textLength="58" x="1383" y="145.5801">Meditate,</text><text fill="#000000" font-family="sans-serif" font-size="14" lengthAdjust="spacing" textLength="92" x="1383" y="163.1895">BerserkAttack,</text><text fill="#000000" font-family="sans-serif" font-size="14" lengthAdjust="spacing" textLength="61" x="1383" y="180.7988">ThirdEye,</text><line style="stroke:#181818;stroke-width:0.5;" x1="1378" x2="1480" y1="187.875" y2="187.875"/></g><!--class IAction--><g id="elem_IAction"><rect codeLine="1" fill="#F1F1F1" height="118.4375" id="IAction" rx="2.5" ry="2.5" style="stroke:#181818;stroke-width:0.5;" width="468" x="1516" y="42.5"/><ellipse cx="1724.25" cy="58.5" fill="#B4A7E5" rx="11" ry="11" style="stroke:#181818;stroke-width:1.0;"/><path d="M1725.2031,55.1406 L1725.2031,61.7969 L1726.9219,61.7969 Q1727.5313,61.7969 1727.7969,62.0313 Q1728.0625,62.2656 1728.0625,62.6563 Q1728.0625,63.0313 1727.7969,63.2656 Q1727.5313,63.5 1726.9219,63.5 L1721.7813,63.5 Q1721.1719,63.5 1720.9063,63.2656 Q1720.6406,63.0313 1720.6406,62.6406 Q1720.6406,62.2656 1720.9063,62.0313 Q1721.1719,61.7969 1721.7813,61.7969 L1723.5,61.7969 L1723.5,55.1406 L1721.7813,55.1406 Q1721.1719,55.1406 1720.9063,54.9063 Q1720.6406,54.6719 1720.6406,54.2813 Q1720.6406,53.9063 1720.9063,53.6719 Q1721.1719,53.4375 1721.7813,53.4375 L1726.9219,53.4375 Q1727.5313,53.4375 1727.7969,53.6719 Q1728.0625,53.9063 1728.0625,54.2813 Q1728.0625,54.6719 1727.7969,54.9063 Q1727.5313,55.1406 1726.9219,55.1406 L1725.2031,55.1406 Z " fill="#000000"/><text fill="#000000" font-family="sans-serif" font-size="14" font-style="italic" lengthAdjust="spacing" textLength="43" x="1744.75" y="64.2285">IAction</text><line style="stroke:#181818;stroke-width:0.5;" x1="1517" x2="1983" y1="74.5" y2="74.5"/><ellipse cx="1527" cy="88.8047" fill="none" rx="3" ry="3" style="stroke:#038048;stroke-width:1.0;"/><text fill="#000000" font-family="sans-serif" font-size="14" lengthAdjust="spacing" textLength="200" x="1536" y="93.0332">TargetType : TargetType &#171;get&#187;</text><line style="stroke:#181818;stroke-width:0.5;" x1="1517" x2="1983" y1="100.1094" y2="100.1094"/><ellipse cx="1527" cy="114.4141" fill="#84BE84" rx="3" ry="3" style="stroke:#038048;stroke-width:1.0;"/><text fill="#000000" font-family="sans-serif" font-size="14" lengthAdjust="spacing" textLength="442" x="1536" y="118.6426">PerformAction(actorUnit:UnitController, targetUnit:UnitController) : void</text><ellipse cx="1527" cy="132.0234" fill="#84BE84" rx="3" ry="3" style="stroke:#038048;stroke-width:1.0;"/><text fill="#000000" font-family="sans-serif" font-size="14" lengthAdjust="spacing" textLength="127" x="1536" y="136.252">IsSuccessful() : bool</text><ellipse cx="1527" cy="149.6328" fill="#84BE84" rx="3" ry="3" style="stroke:#038048;stroke-width:1.0;"/><text fill="#000000" font-family="sans-serif" font-size="14" lengthAdjust="spacing" textLength="365" x="1536" y="153.8613">CalculateMovePosition(targetUnit:UnitController) : Vector3</text></g><!--class AttackAction--><g id="elem_AttackAction"><rect codeLine="1" fill="#F1F1F1" height="188.875" id="AttackAction" rx="2.5" ry="2.5" style="stroke:#181818;stroke-width:0.5;" width="468" x="7" y="256"/><ellipse cx="197.75" cy="272" fill="#ADD1B2" rx="11" ry="11" style="stroke:#181818;stroke-width:1.0;"/><path d="M200.5156,267.875 Q200.6719,267.6563 200.8594,267.5469 Q201.0469,267.4375 201.2656,267.4375 Q201.6406,267.4375 201.875,267.7031 Q202.1094,267.9531 202.1094,268.5625 L202.1094,270.0156 Q202.1094,270.625 201.875,270.8906 Q201.6406,271.1563 201.2656,271.1563 Q200.9219,271.1563 200.7188,270.9531 Q200.5156,270.7656 200.4063,270.25 Q200.3594,269.8906 200.1719,269.7031 Q199.8438,269.3281 199.2344,269.1094 Q198.625,268.8906 198,268.8906 Q197.2344,268.8906 196.5938,269.2188 Q195.9688,269.5469 195.4688,270.2969 Q194.9844,271.0469 194.9844,272.0781 L194.9844,273.1719 Q194.9844,274.4063 195.875,275.2344 Q196.7656,276.0469 198.3594,276.0469 Q199.2969,276.0469 199.9531,275.7969 Q200.3438,275.6406 200.7656,275.2031 Q201.0313,274.9375 201.1719,274.8594 Q201.3281,274.7813 201.5313,274.7813 Q201.8594,274.7813 202.1094,275.0469 Q202.375,275.2969 202.375,275.6406 Q202.375,275.9844 202.0313,276.3906 Q201.5313,276.9688 200.7344,277.2969 Q199.6563,277.75 198.3594,277.75 Q196.8438,277.75 195.6406,277.125 Q194.6563,276.625 193.9688,275.5625 Q193.2813,274.4844 193.2813,273.2031 L193.2813,272.0469 Q193.2813,270.7188 193.8906,269.5781 Q194.5156,268.4219 195.6094,267.8125 Q196.7031,267.1875 197.9375,267.1875 Q198.6719,267.1875 199.3125,267.3594 Q199.9688,267.5156 200.5156,267.875 Z " fill="#000000"/><text fill="#000000" font-family="sans-serif" font-size="14" lengthAdjust="spacing" textLength="78" x="218.25" y="277.7285">AttackAction</text><line style="stroke:#181818;stroke-width:0.5;" x1="8" x2="474" y1="288" y2="288"/><rect fill="none" height="6" style="stroke:#C82930;stroke-width:1.0;" width="6" x="15" y="299.3047"/><text fill="#000000" font-family="sans-serif" font-size="14" lengthAdjust="spacing" textLength="154" x="27" y="306.5332">actorUnit : UnitController</text><rect fill="none" height="6" style="stroke:#C82930;stroke-width:1.0;" width="6" x="15" y="316.9141"/><text fill="#000000" font-family="sans-serif" font-size="14" lengthAdjust="spacing" textLength="159" x="27" y="324.1426">targetUnit : UnitController</text><ellipse cx="18" cy="337.5234" fill="none" rx="3" ry="3" style="stroke:#038048;stroke-width:1.0;"/><text fill="#000000" font-family="sans-serif" font-size="14" lengthAdjust="spacing" textLength="200" x="27" y="341.752">TargetType : TargetType &#171;get&#187;</text><line style="stroke:#181818;stroke-width:0.5;" x1="8" x2="474" y1="348.8281" y2="348.8281"/><ellipse cx="18" cy="363.1328" fill="#84BE84" rx="3" ry="3" style="stroke:#038048;stroke-width:1.0;"/><text fill="#000000" font-family="sans-serif" font-size="14" lengthAdjust="spacing" textLength="442" x="27" y="367.3613">PerformAction(actorUnit:UnitController, targetUnit:UnitController) : void</text><ellipse cx="18" cy="380.7422" fill="#84BE84" rx="3" ry="3" style="stroke:#038048;stroke-width:1.0;"/><text fill="#000000" font-family="sans-serif" font-size="14" lengthAdjust="spacing" textLength="236" x="27" y="384.9707">OnActionAnimationCompleted() : void</text><ellipse cx="18" cy="398.3516" fill="#84BE84" rx="3" ry="3" style="stroke:#038048;stroke-width:1.0;"/><text fill="#000000" font-family="sans-serif" font-size="14" lengthAdjust="spacing" textLength="127" x="27" y="402.5801">IsSuccessful() : bool</text><ellipse cx="18" cy="415.9609" fill="#84BE84" rx="3" ry="3" style="stroke:#038048;stroke-width:1.0;"/><text fill="#000000" font-family="sans-serif" font-size="14" lengthAdjust="spacing" textLength="365" x="27" y="420.1895">CalculateMovePosition(targetUnit:UnitController) : Vector3</text><rect fill="#F24D5C" height="6" style="stroke:#C82930;stroke-width:1.0;" width="6" x="15" y="430.5703"/><text fill="#000000" font-family="sans-serif" font-size="14" lengthAdjust="spacing" textLength="155" x="27" y="437.7988">PlayAttackSound() : void</text></g><!--class AttackStanceAction--><g id="elem_AttackStanceAction"><rect codeLine="1" fill="#F1F1F1" height="171.2656" id="AttackStanceAction" rx="2.5" ry="2.5" style="stroke:#181818;stroke-width:0.5;" width="468" x="510" y="265"/><ellipse cx="678.75" cy="281" fill="#ADD1B2" rx="11" ry="11" style="stroke:#181818;stroke-width:1.0;"/><path d="M681.5156,276.875 Q681.6719,276.6563 681.8594,276.5469 Q682.0469,276.4375 682.2656,276.4375 Q682.6406,276.4375 682.875,276.7031 Q683.1094,276.9531 683.1094,277.5625 L683.1094,279.0156 Q683.1094,279.625 682.875,279.8906 Q682.6406,280.1563 682.2656,280.1563 Q681.9219,280.1563 681.7188,279.9531 Q681.5156,279.7656 681.4063,279.25 Q681.3594,278.8906 681.1719,278.7031 Q680.8438,278.3281 680.2344,278.1094 Q679.625,277.8906 679,277.8906 Q678.2344,277.8906 677.5938,278.2188 Q676.9688,278.5469 676.4688,279.2969 Q675.9844,280.0469 675.9844,281.0781 L675.9844,282.1719 Q675.9844,283.4063 676.875,284.2344 Q677.7656,285.0469 679.3594,285.0469 Q680.2969,285.0469 680.9531,284.7969 Q681.3438,284.6406 681.7656,284.2031 Q682.0313,283.9375 682.1719,283.8594 Q682.3281,283.7813 682.5313,283.7813 Q682.8594,283.7813 683.1094,284.0469 Q683.375,284.2969 683.375,284.6406 Q683.375,284.9844 683.0313,285.3906 Q682.5313,285.9688 681.7344,286.2969 Q680.6563,286.75 679.3594,286.75 Q677.8438,286.75 676.6406,286.125 Q675.6563,285.625 674.9688,284.5625 Q674.2813,283.4844 674.2813,282.2031 L674.2813,281.0469 Q674.2813,279.7188 674.8906,278.5781 Q675.5156,277.4219 676.6094,276.8125 Q677.7031,276.1875 678.9375,276.1875 Q679.6719,276.1875 680.3125,276.3594 Q680.9688,276.5156 681.5156,276.875 Z " fill="#000000"/><text fill="#000000" font-family="sans-serif" font-size="14" lengthAdjust="spacing" textLength="122" x="699.25" y="286.7285">AttackStanceAction</text><line style="stroke:#181818;stroke-width:0.5;" x1="511" x2="977" y1="297" y2="297"/><rect fill="none" height="6" style="stroke:#C82930;stroke-width:1.0;" width="6" x="518" y="308.3047"/><text fill="#000000" font-family="sans-serif" font-size="14" lengthAdjust="spacing" textLength="154" x="530" y="315.5332">actorUnit : UnitController</text><rect fill="none" height="6" style="stroke:#C82930;stroke-width:1.0;" width="6" x="518" y="325.9141"/><text fill="#000000" font-family="sans-serif" font-size="14" lengthAdjust="spacing" textLength="159" x="530" y="333.1426">targetUnit : UnitController</text><rect fill="none" height="6" style="stroke:#C82930;stroke-width:1.0;" width="6" x="518" y="343.5234"/><text fill="#000000" font-family="sans-serif" font-size="14" lengthAdjust="spacing" textLength="200" x="530" y="350.752">TargetType : TargetType &#171;get&#187;</text><line style="stroke:#181818;stroke-width:0.5;" x1="511" x2="977" y1="357.8281" y2="357.8281"/><ellipse cx="521" cy="372.1328" fill="#84BE84" rx="3" ry="3" style="stroke:#038048;stroke-width:1.0;"/><text fill="#000000" font-family="sans-serif" font-size="14" lengthAdjust="spacing" textLength="442" x="530" y="376.3613">PerformAction(actorUnit:UnitController, targetUnit:UnitController) : void</text><ellipse cx="521" cy="389.7422" fill="#84BE84" rx="3" ry="3" style="stroke:#038048;stroke-width:1.0;"/><text fill="#000000" font-family="sans-serif" font-size="14" lengthAdjust="spacing" textLength="236" x="530" y="393.9707">OnActionAnimationCompleted() : void</text><ellipse cx="521" cy="407.3516" fill="#84BE84" rx="3" ry="3" style="stroke:#038048;stroke-width:1.0;"/><text fill="#000000" font-family="sans-serif" font-size="14" lengthAdjust="spacing" textLength="127" x="530" y="411.5801">IsSuccessful() : bool</text><ellipse cx="521" cy="424.9609" fill="#84BE84" rx="3" ry="3" style="stroke:#038048;stroke-width:1.0;"/><text fill="#000000" font-family="sans-serif" font-size="14" lengthAdjust="spacing" textLength="365" x="530" y="429.1895">CalculateMovePosition(targetUnit:UnitController) : Vector3</text></g><!--class BerserkAttackAction--><g id="elem_BerserkAttackAction"><rect codeLine="1" fill="#F1F1F1" height="188.875" id="BerserkAttackAction" rx="2.5" ry="2.5" style="stroke:#181818;stroke-width:0.5;" width="468" x="1013" y="256"/><ellipse cx="1179.25" cy="272" fill="#ADD1B2" rx="11" ry="11" style="stroke:#181818;stroke-width:1.0;"/><path d="M1182.0156,267.875 Q1182.1719,267.6563 1182.3594,267.5469 Q1182.5469,267.4375 1182.7656,267.4375 Q1183.1406,267.4375 1183.375,267.7031 Q1183.6094,267.9531 1183.6094,268.5625 L1183.6094,270.0156 Q1183.6094,270.625 1183.375,270.8906 Q1183.1406,271.1563 1182.7656,271.1563 Q1182.4219,271.1563 1182.2188,270.9531 Q1182.0156,270.7656 1181.9063,270.25 Q1181.8594,269.8906 1181.6719,269.7031 Q1181.3438,269.3281 1180.7344,269.1094 Q1180.125,268.8906 1179.5,268.8906 Q1178.7344,268.8906 1178.0938,269.2188 Q1177.4688,269.5469 1176.9688,270.2969 Q1176.4844,271.0469 1176.4844,272.0781 L1176.4844,273.1719 Q1176.4844,274.4063 1177.375,275.2344 Q1178.2656,276.0469 1179.8594,276.0469 Q1180.7969,276.0469 1181.4531,275.7969 Q1181.8438,275.6406 1182.2656,275.2031 Q1182.5313,274.9375 1182.6719,274.8594 Q1182.8281,274.7813 1183.0313,274.7813 Q1183.3594,274.7813 1183.6094,275.0469 Q1183.875,275.2969 1183.875,275.6406 Q1183.875,275.9844 1183.5313,276.3906 Q1183.0313,276.9688 1182.2344,277.2969 Q1181.1563,277.75 1179.8594,277.75 Q1178.3438,277.75 1177.1406,277.125 Q1176.1563,276.625 1175.4688,275.5625 Q1174.7813,274.4844 1174.7813,273.2031 L1174.7813,272.0469 Q1174.7813,270.7188 1175.3906,269.5781 Q1176.0156,268.4219 1177.1094,267.8125 Q1178.2031,267.1875 1179.4375,267.1875 Q1180.1719,267.1875 1180.8125,267.3594 Q1181.4688,267.5156 1182.0156,267.875 Z " fill="#000000"/><text fill="#000000" font-family="sans-serif" font-size="14" lengthAdjust="spacing" textLength="127" x="1199.75" y="277.7285">BerserkAttackAction</text><line style="stroke:#181818;stroke-width:0.5;" x1="1014" x2="1480" y1="288" y2="288"/><rect fill="none" height="6" style="stroke:#C82930;stroke-width:1.0;" width="6" x="1021" y="299.3047"/><text fill="#000000" font-family="sans-serif" font-size="14" lengthAdjust="spacing" textLength="205" x="1033" y="306.5332">&#171;const&#187; hitChance : float = 0.66f</text><rect fill="none" height="6" style="stroke:#C82930;stroke-width:1.0;" width="6" x="1021" y="316.9141"/><text fill="#000000" font-family="sans-serif" font-size="14" lengthAdjust="spacing" textLength="154" x="1033" y="324.1426">actorUnit : UnitController</text><rect fill="none" height="6" style="stroke:#C82930;stroke-width:1.0;" width="6" x="1021" y="334.5234"/><text fill="#000000" font-family="sans-serif" font-size="14" lengthAdjust="spacing" textLength="159" x="1033" y="341.752">targetUnit : UnitController</text><ellipse cx="1024" cy="355.1328" fill="none" rx="3" ry="3" style="stroke:#038048;stroke-width:1.0;"/><text fill="#000000" font-family="sans-serif" font-size="14" lengthAdjust="spacing" textLength="200" x="1033" y="359.3613">TargetType : TargetType &#171;get&#187;</text><line style="stroke:#181818;stroke-width:0.5;" x1="1014" x2="1480" y1="366.4375" y2="366.4375"/><ellipse cx="1024" cy="380.7422" fill="#84BE84" rx="3" ry="3" style="stroke:#038048;stroke-width:1.0;"/><text fill="#000000" font-family="sans-serif" font-size="14" lengthAdjust="spacing" textLength="442" x="1033" y="384.9707">PerformAction(actorUnit:UnitController, targetUnit:UnitController) : void</text><ellipse cx="1024" cy="398.3516" fill="#84BE84" rx="3" ry="3" style="stroke:#038048;stroke-width:1.0;"/><text fill="#000000" font-family="sans-serif" font-size="14" lengthAdjust="spacing" textLength="236" x="1033" y="402.5801">OnActionAnimationCompleted() : void</text><ellipse cx="1024" cy="415.9609" fill="#84BE84" rx="3" ry="3" style="stroke:#038048;stroke-width:1.0;"/><text fill="#000000" font-family="sans-serif" font-size="14" lengthAdjust="spacing" textLength="127" x="1033" y="420.1895">IsSuccessful() : bool</text><ellipse cx="1024" cy="433.5703" fill="#84BE84" rx="3" ry="3" style="stroke:#038048;stroke-width:1.0;"/><text fill="#000000" font-family="sans-serif" font-size="14" lengthAdjust="spacing" textLength="365" x="1033" y="437.7988">CalculateMovePosition(targetUnit:UnitController) : Vector3</text></g><!--class CleanseAction--><g id="elem_CleanseAction"><rect codeLine="1" fill="#F1F1F1" height="188.875" id="CleanseAction" rx="2.5" ry="2.5" style="stroke:#181818;stroke-width:0.5;" width="468" x="1516" y="256"/><ellipse cx="1700.25" cy="272" fill="#ADD1B2" rx="11" ry="11" style="stroke:#181818;stroke-width:1.0;"/><path d="M1703.0156,267.875 Q1703.1719,267.6563 1703.3594,267.5469 Q1703.5469,267.4375 1703.7656,267.4375 Q1704.1406,267.4375 1704.375,267.7031 Q1704.6094,267.9531 1704.6094,268.5625 L1704.6094,270.0156 Q1704.6094,270.625 1704.375,270.8906 Q1704.1406,271.1563 1703.7656,271.1563 Q1703.4219,271.1563 1703.2188,270.9531 Q1703.0156,270.7656 1702.9063,270.25 Q1702.8594,269.8906 1702.6719,269.7031 Q1702.3438,269.3281 1701.7344,269.1094 Q1701.125,268.8906 1700.5,268.8906 Q1699.7344,268.8906 1699.0938,269.2188 Q1698.4688,269.5469 1697.9688,270.2969 Q1697.4844,271.0469 1697.4844,272.0781 L1697.4844,273.1719 Q1697.4844,274.4063 1698.375,275.2344 Q1699.2656,276.0469 1700.8594,276.0469 Q1701.7969,276.0469 1702.4531,275.7969 Q1702.8438,275.6406 1703.2656,275.2031 Q1703.5313,274.9375 1703.6719,274.8594 Q1703.8281,274.7813 1704.0313,274.7813 Q1704.3594,274.7813 1704.6094,275.0469 Q1704.875,275.2969 1704.875,275.6406 Q1704.875,275.9844 1704.5313,276.3906 Q1704.0313,276.9688 1703.2344,277.2969 Q1702.1563,277.75 1700.8594,277.75 Q1699.3438,277.75 1698.1406,277.125 Q1697.1563,276.625 1696.4688,275.5625 Q1695.7813,274.4844 1695.7813,273.2031 L1695.7813,272.0469 Q1695.7813,270.7188 1696.3906,269.5781 Q1697.0156,268.4219 1698.1094,267.8125 Q1699.2031,267.1875 1700.4375,267.1875 Q1701.1719,267.1875 1701.8125,267.3594 Q1702.4688,267.5156 1703.0156,267.875 Z " fill="#000000"/><text fill="#000000" font-family="sans-serif" font-size="14" lengthAdjust="spacing" textLength="91" x="1720.75" y="277.7285">CleanseAction</text><line style="stroke:#181818;stroke-width:0.5;" x1="1517" x2="1983" y1="288" y2="288"/><rect fill="none" height="6" style="stroke:#C82930;stroke-width:1.0;" width="6" x="1524" y="299.3047"/><text fill="#000000" font-family="sans-serif" font-size="14" lengthAdjust="spacing" textLength="197" x="1536" y="306.5332">&#171;const&#187; hitChance : float = 0.2f</text><rect fill="none" height="6" style="stroke:#C82930;stroke-width:1.0;" width="6" x="1524" y="316.9141"/><text fill="#000000" font-family="sans-serif" font-size="14" lengthAdjust="spacing" textLength="154" x="1536" y="324.1426">actorUnit : UnitController</text><rect fill="none" height="6" style="stroke:#C82930;stroke-width:1.0;" width="6" x="1524" y="334.5234"/><text fill="#000000" font-family="sans-serif" font-size="14" lengthAdjust="spacing" textLength="159" x="1536" y="341.752">targetUnit : UnitController</text><ellipse cx="1527" cy="355.1328" fill="none" rx="3" ry="3" style="stroke:#038048;stroke-width:1.0;"/><text fill="#000000" font-family="sans-serif" font-size="14" lengthAdjust="spacing" textLength="200" x="1536" y="359.3613">TargetType : TargetType &#171;get&#187;</text><line style="stroke:#181818;stroke-width:0.5;" x1="1517" x2="1983" y1="366.4375" y2="366.4375"/><ellipse cx="1527" cy="380.7422" fill="#84BE84" rx="3" ry="3" style="stroke:#038048;stroke-width:1.0;"/><text fill="#000000" font-family="sans-serif" font-size="14" lengthAdjust="spacing" textLength="442" x="1536" y="384.9707">PerformAction(actorUnit:UnitController, targetUnit:UnitController) : void</text><ellipse cx="1527" cy="398.3516" fill="#84BE84" rx="3" ry="3" style="stroke:#038048;stroke-width:1.0;"/><text fill="#000000" font-family="sans-serif" font-size="14" lengthAdjust="spacing" textLength="236" x="1536" y="402.5801">OnActionAnimationCompleted() : void</text><ellipse cx="1527" cy="415.9609" fill="#84BE84" rx="3" ry="3" style="stroke:#038048;stroke-width:1.0;"/><text fill="#000000" font-family="sans-serif" font-size="14" lengthAdjust="spacing" textLength="127" x="1536" y="420.1895">IsSuccessful() : bool</text><ellipse cx="1527" cy="433.5703" fill="#84BE84" rx="3" ry="3" style="stroke:#038048;stroke-width:1.0;"/><text fill="#000000" font-family="sans-serif" font-size="14" lengthAdjust="spacing" textLength="365" x="1536" y="437.7988">CalculateMovePosition(targetUnit:UnitController) : Vector3</text></g><!--class HealAction--><g id="elem_HealAction"><rect codeLine="1" fill="#F1F1F1" height="171.2656" id="HealAction" rx="2.5" ry="2.5" style="stroke:#181818;stroke-width:0.5;" width="468" x="2019" y="265"/><ellipse cx="2215.25" cy="281" fill="#ADD1B2" rx="11" ry="11" style="stroke:#181818;stroke-width:1.0;"/><path d="M2218.0156,276.875 Q2218.1719,276.6563 2218.3594,276.5469 Q2218.5469,276.4375 2218.7656,276.4375 Q2219.1406,276.4375 2219.375,276.7031 Q2219.6094,276.9531 2219.6094,277.5625 L2219.6094,279.0156 Q2219.6094,279.625 2219.375,279.8906 Q2219.1406,280.1563 2218.7656,280.1563 Q2218.4219,280.1563 2218.2188,279.9531 Q2218.0156,279.7656 2217.9063,279.25 Q2217.8594,278.8906 2217.6719,278.7031 Q2217.3438,278.3281 2216.7344,278.1094 Q2216.125,277.8906 2215.5,277.8906 Q2214.7344,277.8906 2214.0938,278.2188 Q2213.4688,278.5469 2212.9688,279.2969 Q2212.4844,280.0469 2212.4844,281.0781 L2212.4844,282.1719 Q2212.4844,283.4063 2213.375,284.2344 Q2214.2656,285.0469 2215.8594,285.0469 Q2216.7969,285.0469 2217.4531,284.7969 Q2217.8438,284.6406 2218.2656,284.2031 Q2218.5313,283.9375 2218.6719,283.8594 Q2218.8281,283.7813 2219.0313,283.7813 Q2219.3594,283.7813 2219.6094,284.0469 Q2219.875,284.2969 2219.875,284.6406 Q2219.875,284.9844 2219.5313,285.3906 Q2219.0313,285.9688 2218.2344,286.2969 Q2217.1563,286.75 2215.8594,286.75 Q2214.3438,286.75 2213.1406,286.125 Q2212.1563,285.625 2211.4688,284.5625 Q2210.7813,283.4844 2210.7813,282.2031 L2210.7813,281.0469 Q2210.7813,279.7188 2211.3906,278.5781 Q2212.0156,277.4219 2213.1094,276.8125 Q2214.2031,276.1875 2215.4375,276.1875 Q2216.1719,276.1875 2216.8125,276.3594 Q2217.4688,276.5156 2218.0156,276.875 Z " fill="#000000"/><text fill="#000000" font-family="sans-serif" font-size="14" lengthAdjust="spacing" textLength="67" x="2235.75" y="286.7285">HealAction</text><line style="stroke:#181818;stroke-width:0.5;" x1="2020" x2="2486" y1="297" y2="297"/><rect fill="none" height="6" style="stroke:#C82930;stroke-width:1.0;" width="6" x="2027" y="308.3047"/><text fill="#000000" font-family="sans-serif" font-size="14" lengthAdjust="spacing" textLength="154" x="2039" y="315.5332">actorUnit : UnitController</text><rect fill="none" height="6" style="stroke:#C82930;stroke-width:1.0;" width="6" x="2027" y="325.9141"/><text fill="#000000" font-family="sans-serif" font-size="14" lengthAdjust="spacing" textLength="159" x="2039" y="333.1426">targetUnit : UnitController</text><ellipse cx="2030" cy="346.5234" fill="none" rx="3" ry="3" style="stroke:#038048;stroke-width:1.0;"/><text fill="#000000" font-family="sans-serif" font-size="14" lengthAdjust="spacing" textLength="200" x="2039" y="350.752">TargetType : TargetType &#171;get&#187;</text><line style="stroke:#181818;stroke-width:0.5;" x1="2020" x2="2486" y1="357.8281" y2="357.8281"/><ellipse cx="2030" cy="372.1328" fill="#84BE84" rx="3" ry="3" style="stroke:#038048;stroke-width:1.0;"/><text fill="#000000" font-family="sans-serif" font-size="14" lengthAdjust="spacing" textLength="442" x="2039" y="376.3613">PerformAction(actorUnit:UnitController, targetUnit:UnitController) : void</text><ellipse cx="2030" cy="389.7422" fill="#84BE84" rx="3" ry="3" style="stroke:#038048;stroke-width:1.0;"/><text fill="#000000" font-family="sans-serif" font-size="14" lengthAdjust="spacing" textLength="236" x="2039" y="393.9707">OnActionAnimationCompleted() : void</text><ellipse cx="2030" cy="407.3516" fill="#84BE84" rx="3" ry="3" style="stroke:#038048;stroke-width:1.0;"/><text fill="#000000" font-family="sans-serif" font-size="14" lengthAdjust="spacing" textLength="127" x="2039" y="411.5801">IsSuccessful() : bool</text><ellipse cx="2030" cy="424.9609" fill="#84BE84" rx="3" ry="3" style="stroke:#038048;stroke-width:1.0;"/><text fill="#000000" font-family="sans-serif" font-size="14" lengthAdjust="spacing" textLength="365" x="2039" y="429.1895">CalculateMovePosition(targetUnit:UnitController) : Vector3</text></g><!--class MeditateAction--><g id="elem_MeditateAction"><rect codeLine="1" fill="#F1F1F1" height="171.2656" id="MeditateAction" rx="2.5" ry="2.5" style="stroke:#181818;stroke-width:0.5;" width="468" x="2522" y="265"/><ellipse cx="2705.25" cy="281" fill="#ADD1B2" rx="11" ry="11" style="stroke:#181818;stroke-width:1.0;"/><path d="M2708.0156,276.875 Q2708.1719,276.6563 2708.3594,276.5469 Q2708.5469,276.4375 2708.7656,276.4375 Q2709.1406,276.4375 2709.375,276.7031 Q2709.6094,276.9531 2709.6094,277.5625 L2709.6094,279.0156 Q2709.6094,279.625 2709.375,279.8906 Q2709.1406,280.1563 2708.7656,280.1563 Q2708.4219,280.1563 2708.2188,279.9531 Q2708.0156,279.7656 2707.9063,279.25 Q2707.8594,278.8906 2707.6719,278.7031 Q2707.3438,278.3281 2706.7344,278.1094 Q2706.125,277.8906 2705.5,277.8906 Q2704.7344,277.8906 2704.0938,278.2188 Q2703.4688,278.5469 2702.9688,279.2969 Q2702.4844,280.0469 2702.4844,281.0781 L2702.4844,282.1719 Q2702.4844,283.4063 2703.375,284.2344 Q2704.2656,285.0469 2705.8594,285.0469 Q2706.7969,285.0469 2707.4531,284.7969 Q2707.8438,284.6406 2708.2656,284.2031 Q2708.5313,283.9375 2708.6719,283.8594 Q2708.8281,283.7813 2709.0313,283.7813 Q2709.3594,283.7813 2709.6094,284.0469 Q2709.875,284.2969 2709.875,284.6406 Q2709.875,284.9844 2709.5313,285.3906 Q2709.0313,285.9688 2708.2344,286.2969 Q2707.1563,286.75 2705.8594,286.75 Q2704.3438,286.75 2703.1406,286.125 Q2702.1563,285.625 2701.4688,284.5625 Q2700.7813,283.4844 2700.7813,282.2031 L2700.7813,281.0469 Q2700.7813,279.7188 2701.3906,278.5781 Q2702.0156,277.4219 2703.1094,276.8125 Q2704.2031,276.1875 2705.4375,276.1875 Q2706.1719,276.1875 2706.8125,276.3594 Q2707.4688,276.5156 2708.0156,276.875 Z " fill="#000000"/><text fill="#000000" font-family="sans-serif" font-size="14" lengthAdjust="spacing" textLength="93" x="2725.75" y="286.7285">MeditateAction</text><line style="stroke:#181818;stroke-width:0.5;" x1="2523" x2="2989" y1="297" y2="297"/><rect fill="none" height="6" style="stroke:#C82930;stroke-width:1.0;" width="6" x="2530" y="308.3047"/><text fill="#000000" font-family="sans-serif" font-size="14" lengthAdjust="spacing" textLength="154" x="2542" y="315.5332">actorUnit : UnitController</text><rect fill="none" height="6" style="stroke:#C82930;stroke-width:1.0;" width="6" x="2530" y="325.9141"/><text fill="#000000" font-family="sans-serif" font-size="14" lengthAdjust="spacing" textLength="159" x="2542" y="333.1426">targetUnit : UnitController</text><ellipse cx="2533" cy="346.5234" fill="none" rx="3" ry="3" style="stroke:#038048;stroke-width:1.0;"/><text fill="#000000" font-family="sans-serif" font-size="14" lengthAdjust="spacing" textLength="200" x="2542" y="350.752">TargetType : TargetType &#171;get&#187;</text><line style="stroke:#181818;stroke-width:0.5;" x1="2523" x2="2989" y1="357.8281" y2="357.8281"/><ellipse cx="2533" cy="372.1328" fill="#84BE84" rx="3" ry="3" style="stroke:#038048;stroke-width:1.0;"/><text fill="#000000" font-family="sans-serif" font-size="14" lengthAdjust="spacing" textLength="442" x="2542" y="376.3613">PerformAction(actorUnit:UnitController, targetUnit:UnitController) : void</text><ellipse cx="2533" cy="389.7422" fill="#84BE84" rx="3" ry="3" style="stroke:#038048;stroke-width:1.0;"/><text fill="#000000" font-family="sans-serif" font-size="14" lengthAdjust="spacing" textLength="236" x="2542" y="393.9707">OnActionAnimationCompleted() : void</text><ellipse cx="2533" cy="407.3516" fill="#84BE84" rx="3" ry="3" style="stroke:#038048;stroke-width:1.0;"/><text fill="#000000" font-family="sans-serif" font-size="14" lengthAdjust="spacing" textLength="127" x="2542" y="411.5801">IsSuccessful() : bool</text><ellipse cx="2533" cy="424.9609" fill="#84BE84" rx="3" ry="3" style="stroke:#038048;stroke-width:1.0;"/><text fill="#000000" font-family="sans-serif" font-size="14" lengthAdjust="spacing" textLength="365" x="2542" y="429.1895">CalculateMovePosition(targetUnit:UnitController) : Vector3</text></g><!--class ThirdEyeAction--><g id="elem_ThirdEyeAction"><rect codeLine="1" fill="#F1F1F1" height="171.2656" id="ThirdEyeAction" rx="2.5" ry="2.5" style="stroke:#181818;stroke-width:0.5;" width="468" x="3025" y="265"/><ellipse cx="3206.75" cy="281" fill="#ADD1B2" rx="11" ry="11" style="stroke:#181818;stroke-width:1.0;"/><path d="M3209.5156,276.875 Q3209.6719,276.6563 3209.8594,276.5469 Q3210.0469,276.4375 3210.2656,276.4375 Q3210.6406,276.4375 3210.875,276.7031 Q3211.1094,276.9531 3211.1094,277.5625 L3211.1094,279.0156 Q3211.1094,279.625 3210.875,279.8906 Q3210.6406,280.1563 3210.2656,280.1563 Q3209.9219,280.1563 3209.7188,279.9531 Q3209.5156,279.7656 3209.4063,279.25 Q3209.3594,278.8906 3209.1719,278.7031 Q3208.8438,278.3281 3208.2344,278.1094 Q3207.625,277.8906 3207,277.8906 Q3206.2344,277.8906 3205.5938,278.2188 Q3204.9688,278.5469 3204.4688,279.2969 Q3203.9844,280.0469 3203.9844,281.0781 L3203.9844,282.1719 Q3203.9844,283.4063 3204.875,284.2344 Q3205.7656,285.0469 3207.3594,285.0469 Q3208.2969,285.0469 3208.9531,284.7969 Q3209.3438,284.6406 3209.7656,284.2031 Q3210.0313,283.9375 3210.1719,283.8594 Q3210.3281,283.7813 3210.5313,283.7813 Q3210.8594,283.7813 3211.1094,284.0469 Q3211.375,284.2969 3211.375,284.6406 Q3211.375,284.9844 3211.0313,285.3906 Q3210.5313,285.9688 3209.7344,286.2969 Q3208.6563,286.75 3207.3594,286.75 Q3205.8438,286.75 3204.6406,286.125 Q3203.6563,285.625 3202.9688,284.5625 Q3202.2813,283.4844 3202.2813,282.2031 L3202.2813,281.0469 Q3202.2813,279.7188 3202.8906,278.5781 Q3203.5156,277.4219 3204.6094,276.8125 Q3205.7031,276.1875 3206.9375,276.1875 Q3207.6719,276.1875 3208.3125,276.3594 Q3208.9688,276.5156 3209.5156,276.875 Z " fill="#000000"/><text fill="#000000" font-family="sans-serif" font-size="14" lengthAdjust="spacing" textLength="96" x="3227.25" y="286.7285">ThirdEyeAction</text><line style="stroke:#181818;stroke-width:0.5;" x1="3026" x2="3492" y1="297" y2="297"/><rect fill="none" height="6" style="stroke:#C82930;stroke-width:1.0;" width="6" x="3033" y="308.3047"/><text fill="#000000" font-family="sans-serif" font-size="14" lengthAdjust="spacing" textLength="154" x="3045" y="315.5332">actorUnit : UnitController</text><rect fill="none" height="6" style="stroke:#C82930;stroke-width:1.0;" width="6" x="3033" y="325.9141"/><text fill="#000000" font-family="sans-serif" font-size="14" lengthAdjust="spacing" textLength="159" x="3045" y="333.1426">targetUnit : UnitController</text><ellipse cx="3036" cy="346.5234" fill="none" rx="3" ry="3" style="stroke:#038048;stroke-width:1.0;"/><text fill="#000000" font-family="sans-serif" font-size="14" lengthAdjust="spacing" textLength="200" x="3045" y="350.752">TargetType : TargetType &#171;get&#187;</text><line style="stroke:#181818;stroke-width:0.5;" x1="3026" x2="3492" y1="357.8281" y2="357.8281"/><ellipse cx="3036" cy="372.1328" fill="#84BE84" rx="3" ry="3" style="stroke:#038048;stroke-width:1.0;"/><text fill="#000000" font-family="sans-serif" font-size="14" lengthAdjust="spacing" textLength="442" x="3045" y="376.3613">PerformAction(actorUnit:UnitController, targetUnit:UnitController) : void</text><ellipse cx="3036" cy="389.7422" fill="#84BE84" rx="3" ry="3" style="stroke:#038048;stroke-width:1.0;"/><text fill="#000000" font-family="sans-serif" font-size="14" lengthAdjust="spacing" textLength="236" x="3045" y="393.9707">OnActionAnimationCompleted() : void</text><ellipse cx="3036" cy="407.3516" fill="#84BE84" rx="3" ry="3" style="stroke:#038048;stroke-width:1.0;"/><text fill="#000000" font-family="sans-serif" font-size="14" lengthAdjust="spacing" textLength="127" x="3045" y="411.5801">IsSuccessful() : bool</text><ellipse cx="3036" cy="424.9609" fill="#84BE84" rx="3" ry="3" style="stroke:#038048;stroke-width:1.0;"/><text fill="#000000" font-family="sans-serif" font-size="14" lengthAdjust="spacing" textLength="365" x="3045" y="429.1895">CalculateMovePosition(targetUnit:UnitController) : Vector3</text></g><!--reverse link IAction to AttackAction--><g id="link_IAction_AttackAction"><path codeLine="11" d="M1599.2892,166.7749 C1561.7292,180.7449 1537.27,187.74 1498,196 C1059.7,288.24 930.24,163.47 492,256 C486.43,257.18 480.81,258.46 475.17,259.82 " fill="none" id="IAction-backto-AttackAction" style="stroke:#181818;stroke-width:1.0;"/><polygon fill="none" points="1616.16,160.5,1597.1975,161.1513,1601.3808,172.3985,1616.16,160.5" style="stroke:#181818;stroke-width:1.0;"/></g><!--reverse link IAction to AttackStanceAction--><g id="link_IAction_AttackStanceAction"><path codeLine="10" d="M1594.6492,166.771 C1558.2392,180.181 1535.54,186.93 1498,196 C1279.15,248.86 1213.81,203 995,256 C983.93,258.68 972.68,261.71 961.38,264.99 " fill="none" id="IAction-backto-AttackStanceAction" style="stroke:#181818;stroke-width:1.0;"/><polygon fill="none" points="1611.54,160.55,1592.5755,161.1407,1596.7228,172.4012,1611.54,160.55" style="stroke:#181818;stroke-width:1.0;"/></g><!--reverse link IAction to BerserkAttackAction--><g id="link_IAction_BerserkAttackAction"><path codeLine="11" d="M1615.5931,168.5045 C1557.8031,196.8845 1502.97,223.81 1437.77,255.82 " fill="none" id="IAction-backto-BerserkAttackAction" style="stroke:#181818;stroke-width:1.0;"/><polygon fill="none" points="1631.75,160.57,1612.9483,163.1188,1618.2379,173.8901,1631.75,160.57" style="stroke:#181818;stroke-width:1.0;"/></g><!--reverse link IAction to CleanseAction--><g id="link_IAction_CleanseAction"><path codeLine="11" d="M1750,178.72 C1750,207.11 1750,223.94 1750,255.93 " fill="none" id="IAction-backto-CleanseAction" style="stroke:#181818;stroke-width:1.0;"/><polygon fill="none" points="1750,160.72,1744,178.72,1756,178.72,1750,160.72" style="stroke:#181818;stroke-width:1.0;"/></g><!--reverse link IAction to HealAction--><g id="link_IAction_HealAction"><path codeLine="10" d="M1884.407,168.5043 C1947.717,199.5943 2010.71,230.52 2080.73,264.91 " fill="none" id="IAction-backto-HealAction" style="stroke:#181818;stroke-width:1.0;"/><polygon fill="none" points="1868.25,160.57,1881.7622,173.8899,1887.0517,163.1186,1868.25,160.57" style="stroke:#181818;stroke-width:1.0;"/></g><!--reverse link IAction to MeditateAction--><g id="link_IAction_MeditateAction"><path codeLine="10" d="M2002.1326,143.5777 C2152.3526,170.2577 2333,206.8 2505,256 C2514.72,258.78 2524.61,261.76 2534.55,264.9 " fill="none" id="IAction-backto-MeditateAction" style="stroke:#181818;stroke-width:1.0;"/><polygon fill="none" points="1984.41,140.43,2001.0834,149.4852,2003.1819,137.6701,1984.41,140.43" style="stroke:#181818;stroke-width:1.0;"/></g><!--reverse link IAction to ThirdEyeAction--><g id="link_IAction_ThirdEyeAction"><path codeLine="10" d="M2002.1803,115.7851 C2257.0603,132.7451 2657.15,170.51 3008,256 C3018.96,258.67 3030.09,261.67 3041.27,264.92 " fill="none" id="IAction-backto-ThirdEyeAction" style="stroke:#181818;stroke-width:1.0;"/><polygon fill="none" points="1984.22,114.59,2001.7819,121.7719,2002.5786,109.7983,1984.22,114.59" style="stroke:#181818;stroke-width:1.0;"/></g><!--SRC=[KypCIyufJKbLq8k9SImkJYqfZWbEBiei0DAEoIMP-NbGAZYrg2mpELMle3GtXqkHI4qXbGL4w_24qAHP0EIMb2GcPrEYDxWaCIyvbJmJd5ABYbEBiYbnX7DEQc9UCPdsUwGcvf2dqpSr9RCaiOHCUqCoCejIN2kHTGC0]--></g></svg>