<?xml version="1.0" encoding="us-ascii" standalone="no"?><svg xmlns="http://www.w3.org/2000/svg" xmlns:xlink="http://www.w3.org/1999/xlink" contentStyleType="text/css" height="416px" preserveAspectRatio="none" style="width:376px;height:416px;background:#FFFFFF;" version="1.1" viewBox="0 0 376 416" width="376px" zoomAndPan="magnify"><defs/><g><!--class GameService--><g id="elem_GameService"><rect codeLine="1" fill="#F1F1F1" height="294.5313" id="GameService" rx="2.5" ry="2.5" style="stroke:#181818;stroke-width:0.5;" width="362" x="7" y="115"/><ellipse cx="141.25" cy="131" fill="#ADD1B2" rx="11" ry="11" style="stroke:#181818;stroke-width:1.0;"/><path d="M144.0156,126.875 Q144.1719,126.6563 144.3594,126.5469 Q144.5469,126.4375 144.7656,126.4375 Q145.1406,126.4375 145.375,126.7031 Q145.6094,126.9531 145.6094,127.5625 L145.6094,129.0156 Q145.6094,129.625 145.375,129.8906 Q145.1406,130.1563 144.7656,130.1563 Q144.4219,130.1563 144.2188,129.9531 Q144.0156,129.7656 143.9063,129.25 Q143.8594,128.8906 143.6719,128.7031 Q143.3438,128.3281 142.7344,128.1094 Q142.125,127.8906 141.5,127.8906 Q140.7344,127.8906 140.0938,128.2188 Q139.4688,128.5469 138.9688,129.2969 Q138.4844,130.0469 138.4844,131.0781 L138.4844,132.1719 Q138.4844,133.4063 139.375,134.2344 Q140.2656,135.0469 141.8594,135.0469 Q142.7969,135.0469 143.4531,134.7969 Q143.8438,134.6406 144.2656,134.2031 Q144.5313,133.9375 144.6719,133.8594 Q144.8281,133.7813 145.0313,133.7813 Q145.3594,133.7813 145.6094,134.0469 Q145.875,134.2969 145.875,134.6406 Q145.875,134.9844 145.5313,135.3906 Q145.0313,135.9688 144.2344,136.2969 Q143.1563,136.75 141.8594,136.75 Q140.3438,136.75 139.1406,136.125 Q138.1563,135.625 137.4688,134.5625 Q136.7813,133.4844 136.7813,132.2031 L136.7813,131.0469 Q136.7813,129.7188 137.3906,128.5781 Q138.0156,127.4219 139.1094,126.8125 Q140.2031,126.1875 141.4375,126.1875 Q142.1719,126.1875 142.8125,126.3594 Q143.4688,126.5156 144.0156,126.875 Z " fill="#000000"/><text fill="#000000" font-family="sans-serif" font-size="14" lengthAdjust="spacing" textLength="85" x="161.75" y="136.7285">GameService</text><line style="stroke:#181818;stroke-width:0.5;" x1="8" x2="368" y1="147" y2="147"/><ellipse cx="18" cy="161.3047" fill="none" rx="3" ry="3" style="stroke:#038048;stroke-width:1.0;"/><text fill="#000000" font-family="sans-serif" font-size="14" lengthAdjust="spacing" textLength="218" x="27" y="165.5332">EventService : EventService &#171;get&#187;</text><ellipse cx="18" cy="178.9141" fill="none" rx="3" ry="3" style="stroke:#038048;stroke-width:1.0;"/><text fill="#000000" font-family="sans-serif" font-size="14" lengthAdjust="spacing" textLength="228" x="27" y="183.1426">SoundService : SoundService &#171;get&#187;</text><ellipse cx="18" cy="196.5234" fill="none" rx="3" ry="3" style="stroke:#038048;stroke-width:1.0;"/><text fill="#000000" font-family="sans-serif" font-size="14" lengthAdjust="spacing" textLength="224" x="27" y="200.752">ActionService : ActionService &#171;get&#187;</text><ellipse cx="18" cy="214.1328" fill="none" rx="3" ry="3" style="stroke:#038048;stroke-width:1.0;"/><text fill="#000000" font-family="sans-serif" font-size="14" lengthAdjust="spacing" textLength="208" x="27" y="218.3613">InputService : InputService &#171;get&#187;</text><ellipse cx="18" cy="231.7422" fill="none" rx="3" ry="3" style="stroke:#038048;stroke-width:1.0;"/><text fill="#000000" font-family="sans-serif" font-size="14" lengthAdjust="spacing" textLength="218" x="27" y="235.9707">BattleService : BattleService &#171;get&#187;</text><ellipse cx="18" cy="249.3516" fill="none" rx="3" ry="3" style="stroke:#038048;stroke-width:1.0;"/><text fill="#000000" font-family="sans-serif" font-size="14" lengthAdjust="spacing" textLength="226" x="27" y="253.5801">PlayerService : PlayerService &#171;get&#187;</text><rect fill="none" height="6" style="stroke:#C82930;stroke-width:1.0;" width="6" x="15" y="263.9609"/><text fill="#000000" font-family="sans-serif" font-size="14" lengthAdjust="spacing" textLength="129" x="27" y="271.1895">uiService : UIService</text><ellipse cx="18" cy="284.5703" fill="none" rx="3" ry="3" style="stroke:#038048;stroke-width:1.0;"/><text fill="#000000" font-family="sans-serif" font-size="14" lengthAdjust="spacing" textLength="170" x="27" y="288.7988">UIService : UIService &#171;get&#187;</text><rect fill="none" height="6" style="stroke:#C82930;stroke-width:1.0;" width="6" x="15" y="299.1797"/><text fill="#000000" font-family="sans-serif" font-size="14" lengthAdjust="spacing" textLength="300" x="27" y="306.4082">soundScriptableObject : SoundScriptableObject</text><rect fill="none" height="6" style="stroke:#C82930;stroke-width:1.0;" width="6" x="15" y="316.7891"/><text fill="#000000" font-family="sans-serif" font-size="14" lengthAdjust="spacing" textLength="336" x="27" y="324.0176">battleScriptableObjects : List&lt;BattleScriptableObject&gt;</text><rect fill="none" height="6" style="stroke:#C82930;stroke-width:1.0;" width="6" x="15" y="334.3984"/><text fill="#000000" font-family="sans-serif" font-size="14" lengthAdjust="spacing" textLength="155" x="27" y="341.627">sfxSource : AudioSource</text><rect fill="none" height="6" style="stroke:#C82930;stroke-width:1.0;" width="6" x="15" y="352.0078"/><text fill="#000000" font-family="sans-serif" font-size="14" lengthAdjust="spacing" textLength="190" x="27" y="359.2363">bgMusicSource : AudioSource</text><line style="stroke:#181818;stroke-width:0.5;" x1="8" x2="368" y1="366.3125" y2="366.3125"/><rect fill="#F24D5C" height="6" style="stroke:#C82930;stroke-width:1.0;" width="6" x="15" y="377.6172"/><text fill="#000000" font-family="sans-serif" font-size="14" lengthAdjust="spacing" textLength="78" x="27" y="384.8457">Start() : void</text><rect fill="#F24D5C" height="6" style="stroke:#C82930;stroke-width:1.0;" width="6" x="15" y="395.2266"/><text fill="#000000" font-family="sans-serif" font-size="14" lengthAdjust="spacing" textLength="93" x="27" y="402.4551">Update() : void</text></g><!--class GenericMonoSingleton`1--><g id="elem_GenericMonoSingleton`1"><rect fill="#F1F1F1" height="48" id="GenericMonoSingleton`1" rx="2.5" ry="2.5" style="stroke:#181818;stroke-width:0.5;" width="189" x="93.5" y="7"/><ellipse cx="108.5" cy="23" fill="#ADD1B2" rx="11" ry="11" style="stroke:#181818;stroke-width:1.0;"/><path d="M111.2656,18.875 Q111.4219,18.6563 111.6094,18.5469 Q111.7969,18.4375 112.0156,18.4375 Q112.3906,18.4375 112.625,18.7031 Q112.8594,18.9531 112.8594,19.5625 L112.8594,21.0156 Q112.8594,21.625 112.625,21.8906 Q112.3906,22.1563 112.0156,22.1563 Q111.6719,22.1563 111.4688,21.9531 Q111.2656,21.7656 111.1563,21.25 Q111.1094,20.8906 110.9219,20.7031 Q110.5938,20.3281 109.9844,20.1094 Q109.375,19.8906 108.75,19.8906 Q107.9844,19.8906 107.3438,20.2188 Q106.7188,20.5469 106.2188,21.2969 Q105.7344,22.0469 105.7344,23.0781 L105.7344,24.1719 Q105.7344,25.4063 106.625,26.2344 Q107.5156,27.0469 109.1094,27.0469 Q110.0469,27.0469 110.7031,26.7969 Q111.0938,26.6406 111.5156,26.2031 Q111.7813,25.9375 111.9219,25.8594 Q112.0781,25.7813 112.2813,25.7813 Q112.6094,25.7813 112.8594,26.0469 Q113.125,26.2969 113.125,26.6406 Q113.125,26.9844 112.7813,27.3906 Q112.2813,27.9688 111.4844,28.2969 Q110.4063,28.75 109.1094,28.75 Q107.5938,28.75 106.3906,28.125 Q105.4063,27.625 104.7188,26.5625 Q104.0313,25.4844 104.0313,24.2031 L104.0313,23.0469 Q104.0313,21.7188 104.6406,20.5781 Q105.2656,19.4219 106.3594,18.8125 Q107.4531,18.1875 108.6875,18.1875 Q109.4219,18.1875 110.0625,18.3594 Q110.7188,18.5156 111.2656,18.875 Z " fill="#000000"/><text fill="#000000" font-family="sans-serif" font-size="14" lengthAdjust="spacing" textLength="157" x="122.5" y="28.7285">GenericMonoSingleton`1</text><line style="stroke:#181818;stroke-width:0.5;" x1="94.5" x2="281.5" y1="39" y2="39"/><line style="stroke:#181818;stroke-width:0.5;" x1="94.5" x2="281.5" y1="47" y2="47"/></g><!--reverse link GenericMonoSingleton`1 to GameService--><g id="link_GenericMonoSingleton`1_GameService"><path codeLine="17" d="M188,73.27 C188,88.48 188,91.78 188,114.96 " fill="none" id="GenericMonoSingleton`1-backto-GameService" style="stroke:#181818;stroke-width:1.0;"/><polygon fill="none" points="188,55.27,182,73.27,194,73.27,188,55.27" style="stroke:#181818;stroke-width:1.0;"/><text fill="#000000" font-family="sans-serif" font-size="13" lengthAdjust="spacing" textLength="93" x="83.6656" y="76.6738">&lt;GameService&gt;</text></g><!--SRC=[KypCIyufJKbLq8k9SImkJYqfZWbEBiei0DA-YPbvCUw9kQd1gKLbcScfUWMbkJa0]--></g></svg>